<?xml version="1.0" encoding="UTF-8" standalone="no"?>
<svg viewBox="0 0 420 130" preserveAspectRatio="xMinYMin meet" version="1.1" xmlns="http://www.w3.org/2000/svg" xmlns:xlink="http://www.w3.org/1999/xlink">
    <title>Pros</title>
    <defs></defs>
    <g id="Icons" stroke="none" stroke-width="1" fill="none" fill-rule="evenodd">
        <g id="pros" fill="#fff">
            <path d="M42.512,82.096 L35.888,113.488 L14,113.488 L30.5599995,35.0079994 L52.7773438,35.0079994 L46.256,64.384 L76.352,64.384 C78.1760091,64.384 79.4479964,64.0000038 80.168,63.232 C80.8880036,62.4639962 81.4879976,60.976011 81.968,58.768 L86.144,39.616 C86.336001,38.6559952 86.432,37.9840019 86.432,37.6 C86.432,36.5439947 86.1200031,35.8480017 85.496,35.512 C84.8719969,35.1759983 83.8880067,35.008 82.544,35.008 L30.56,35.008 L34.592,16 L95.648,16 C100.544024,16 104.047989,16.8639914 106.16,18.592 C108.272011,20.3200086 109.328,23.0079818 109.328,26.656 C109.328,27.6160048 109.256001,28.599995 109.112,29.608 C108.967999,30.616005 108.800001,31.7439938 108.608,32.992 L101.84,65.104 C100.591994,70.8640288 98.4800149,75.1359861 95.504,77.92 C92.5279851,80.7040139 87.9200312,82.096 81.68,82.096 L42.512,82.096 Z M168.472,113.488 L175.096,81.664 C175.192,81.1839976 175.264,80.7760017 175.312,80.44 C175.36,80.1039983 175.384,79.7920014 175.384,79.504 C175.384,77.9679923 174.040013,77.2 171.352,77.2 L139.816,77.2 L132.184,113.488 L110.296,113.488 L126.855999,35.0079994 L149.555663,35.0079994 L143.272,61.072 L173.224,61.072 C175.336011,61.072 176.751996,60.7360034 177.472,60.064 C178.192004,59.3919966 178.791998,58.0480101 179.272,56.032 L182.728,40.192 C182.824,39.7119976 182.896,39.2800019 182.944,38.896 C182.992,38.5119981 183.016,38.1760014 183.016,37.888 C183.016,36.7359942 182.680003,35.9680019 182.008,35.584 C181.335997,35.1999981 180.184008,35.008 178.552,35.008 L126.856,35.008 L130.888,16 L192.808,16 C197.800025,16 201.399989,16.8879911 203.608,18.664 C205.816011,20.4400089 206.92,23.1519818 206.92,26.8 C206.92,27.6640043 206.848001,28.5759952 206.704,29.536 C206.559999,30.4960048 206.392001,31.5039947 206.2,32.56 L201.736,53.728 C200.679995,58.720025 198.760014,62.2479897 195.976,64.312 C193.191986,66.3760103 190.120017,67.5999981 186.76,67.984 C189.832015,68.176001 192.423989,68.871994 194.536,70.072 C196.648011,71.272006 197.704,73.4079846 197.704,76.48 L197.704,77.992 C197.704,78.5200026 197.608001,79.0719971 197.416,79.648 L190.36,113.488 L168.472,113.488 Z M226.752,113.488 C221.855976,113.488 218.328011,112.624009 216.168,110.896 C214.007989,109.167991 212.928,106.528018 212.928,102.976 C212.928,101.151991 213.215997,98.9920125 213.792,96.496 L227.184,32.992 C228.432006,27.2319712 230.543985,22.9600139 233.52,20.176 C236.496015,17.3919861 241.103969,16 247.344,16 L295.872,16 C300.768024,16 304.271989,16.8639914 306.384,18.592 C308.496011,20.3200086 309.552,23.0079818 309.552,26.656 C309.552,27.6160048 309.480001,28.6239947 309.336,29.68 C309.191999,30.7360053 309.024001,31.8399942 308.832,32.992 L295.44,96.496 C294.191994,102.256029 292.056015,106.527986 289.032,109.312 C286.007985,112.096014 281.424031,113.488 275.28,113.488 L226.752,113.488 Z M285.36,40.624 C285.456,40.1439976 285.528,39.7120019 285.576,39.328 C285.624,38.9439981 285.648,38.6080014 285.648,38.32 C285.648,36.111989 283.968017,35.008 280.608,35.008 L253.392,35.008 C251.47199,35.008 250.104004,35.3919962 249.288,36.16 C248.471996,36.9280038 247.824002,38.415989 247.344,40.624 L236.976,89.152 C236.783999,90.1120048 236.688,90.7359986 236.688,91.024 C236.688,93.0400101 238.079986,94.048 240.864,94.048 L268.08,94.048 C270.384012,94.048 272.015995,93.6640038 272.976,92.896 C273.936005,92.1279962 274.607998,90.8800086 274.992,89.152 L285.36,40.624 Z M311.528,113.488 L315.56,94.48 L367.544,94.48 C369.272009,94.48 370.543996,94.1440034 371.36,93.472 C372.176004,92.7999966 372.775998,91.5520091 373.16,89.728 L376.04,76.192 C376.136,75.8079981 376.184,75.2800034 376.184,74.608 C376.184,72.8799914 374.936012,72.016 372.44,72.016 L333.992,72.016 C330.05598,72.016 327.200009,71.1760084 325.424,69.496 C323.647991,67.8159916 322.76,65.4400154 322.76,62.368 C322.76,61.2159942 322.903999,59.8240082 323.192,58.192 L328.52,32.992 C329.768006,27.2319712 331.879985,22.9600139 334.856,20.176 C337.832015,17.3919861 342.487968,16 348.824,16 L409.448,16 L405.56,34.576 L353.864,34.576 C352.327992,34.576 351.224003,34.9119966 350.552,35.584 C349.879997,36.2560034 349.352002,37.4559914 348.968,39.184 L346.232,52 C346.136,52.3840019 346.064,52.7199986 346.016,53.008 C345.968,53.2960014 345.944,53.5839986 345.944,53.872 C345.944,55.3120072 346.999989,56.032 349.112,56.032 L388.136,56.032 C392.16802,56.032 395.071991,56.8959914 396.848,58.624 C398.624009,60.3520086 399.512,62.7519846 399.512,65.824 C399.512,67.0720062 399.368001,68.4159928 399.08,69.856 L393.464,96.496 C392.215994,102.256029 390.104015,106.527986 387.128,109.312 C384.151985,112.096014 379.544031,113.488 373.304,113.488 L311.528,113.488 Z" id="pros"></path>
        </g>
    </g>
</svg>