<svg xmlns="http://www.w3.org/2000/svg" width="20" height="20"><title>ic_settings_black_24px</title><desc>Created with Sketch.</desc><g fill="none"><g><g><path id="Shape" d="M-2-2h24v24H-2V-2z"/><path fill="#4C4C4C" d="M17.43 10.98c.04-.32.07-.64.07-.98 0-.34-.03-.66-.07-.98l2.1-1.65c.2-.15.25-.42.13-.64l-2-3.46c-.12-.22-.4-.3-.6-.22l-2.5 1c-.52-.4-1.08-.73-1.7-.98L12.5.42C12.45.18 12.24 0 12 0H8c-.25 0-.46.18-.5.42l-.37 2.65c-.6.25-1.17.6-1.7.98l-2.48-1c-.23-.1-.5 0-.6.22l-2 3.46c-.14.22-.08.5.1.64l2.12 1.65c-.04.32-.07.65-.07.98 0 .33.03.66.07.98l-2.1 1.65c-.2.15-.25.42-.13.64l2 3.46c.12.22.4.3.6.22l2.5-1c.52.4 1.08.73 1.7.98l.37 2.65c.04.24.25.42.5.42h4c.25 0 .46-.18.5-.42l.37-2.65c.6-.25 1.17-.6 1.7-.98l2.48 1c.23.1.5 0 .6-.22l2-3.46c.13-.22.08-.5-.1-.64l-2.12-1.65zM10 13.5c-1.93 0-3.5-1.57-3.5-3.5S8.07 6.5 10 6.5s3.5 1.57 3.5 3.5-1.57 3.5-3.5 3.5z"/></g></g></g></svg>