<svg xmlns="http://www.w3.org/2000/svg" width="38" height="50"><style type="text/css">.st0{fill:#CC3E4A;fill-opacity:0;} .st1{fill:#CC3E4A;}</style><title>Trash Button</title><desc>Created with Sketch.</desc><g id="iOS-9.3-UI-Kit"><g id="UI-Elements"><g id="Toolbar-Icons"><g id="Trash-Button"><path id="Toolbar-Icon-Frame" d="M-9-6h56v64H-9z" class="st0"/><path id="Trash-Icon" d="M38 6H28V4c0-2.2-1.8-4-4-4H14c-2.2 0-4 1.8-4 4v2H0v2h2l1.9 37.3C4 48 6.2 50 8.9 50h20.3c2.7 0 4.9-2.1 5-4.7L36 8h2V6zM12 4c0-1.1.9-2 2-2h10c1.1 0 2 .9 2 2v2H12V4zm20.1 41.2c-.1 1.6-1.4 2.8-3 2.8H8.8c-1.6 0-2.9-1.3-3-2.8L4 8h30l-1.9 37.2zM20 44h-2V12h2v32zm6 0h-2l2-32h2l-2 32zm-14 0l-2-32h2l2 32h-2z" class="st1"/></g></g></g></g></svg>